<?xml version="1.0" encoding="utf-8"?>
<!-- Generator: Adobe Illustrator 16.0.0, SVG Export Plug-In . SVG Version: 6.00 Build 0)  -->
<!DOCTYPE svg PUBLIC "-//W3C//DTD SVG 1.1//EN" "http://www.w3.org/Graphics/SVG/1.1/DTD/svg11.dtd">
<svg version="1.1" id="Capa_1" xmlns="http://www.w3.org/2000/svg" xmlns:xlink="http://www.w3.org/1999/xlink" x="0px" y="0px"
	 width="718.75px" height="302.083px" viewBox="0 0 718.75 302.083" enable-background="new 0 0 718.75 302.083"
	 xml:space="preserve">
<g>
	<path fill="#010202" d="M120.716,234.831h-0.225c-0.132-1.004-0.57-1.883-1.316-2.639s-1.729-1.133-2.949-1.133
		c-0.798,0-1.506,0.188-2.126,0.563c-0.619,0.375-1.098,0.887-1.436,1.535c-0.338,0.646-0.507,1.389-0.507,2.225
		c0,0.646,0.101,1.221,0.303,1.723c0.202,0.504,0.5,0.947,0.894,1.332s0.859,0.744,1.394,1.076c0.535,0.334,1.258,0.754,2.168,1.26
		c1.521,0.836,2.703,1.668,3.548,2.5c0.845,0.83,1.267,1.967,1.267,3.412c0,0.883-0.228,1.734-0.683,2.557
		c-0.455,0.82-1.143,1.494-2.062,2.02c-0.92,0.525-2.061,0.789-3.421,0.789c-0.854,0-1.61-0.092-2.267-0.275
		c-0.657-0.184-1.323-0.439-1.999-0.768c-0.282-0.094-0.474-0.141-0.577-0.141c-0.197,0-0.326,0.07-0.387,0.211
		s-0.144,0.447-0.247,0.916h-0.239v-5.195h0.239c0.338,1.521,0.995,2.67,1.971,3.449c0.976,0.779,2.163,1.168,3.562,1.168
		c1.051,0,1.894-0.197,2.527-0.59c0.634-0.395,1.072-0.873,1.316-1.438c0.244-0.563,0.366-1.125,0.366-1.689
		c0-1.162-0.354-2.113-1.063-2.85c-0.709-0.736-1.786-1.49-3.231-2.26c-0.995-0.545-1.731-0.967-2.21-1.268
		c-0.479-0.301-0.964-0.689-1.457-1.168s-0.885-1.045-1.175-1.697c-0.291-0.65-0.437-1.4-0.437-2.244
		c0-0.977,0.258-1.91,0.774-2.803c0.516-0.891,1.248-1.605,2.196-2.146c0.948-0.539,2.022-0.809,3.224-0.809
		c0.91,0,1.844,0.154,2.801,0.465c0.15,0.074,0.352,0.111,0.605,0.111c0.31,0,0.521-0.211,0.634-0.633h0.225V234.831z"/>
	<path fill="#010202" d="M133.175,231.086v-0.238h12.36v3.266h-0.197c0-1.746-1.164-2.619-3.491-2.619h-4.322v9.418h3.801
		c0.751,0,1.422-0.121,2.013-0.365s0.929-0.803,1.014-1.676h0.211v4.701h-0.211c-0.084-0.533-0.244-0.945-0.479-1.23
		c-0.235-0.287-0.467-0.477-0.697-0.57c-0.23-0.094-0.435-0.141-0.613-0.141c-0.338-0.057-0.689-0.084-1.056-0.084h-3.984v7.361
		c0,0.555,0.105,1.033,0.316,1.436c0.211,0.404,0.702,0.605,1.471,0.605h3.083c0.742,0,1.352-0.107,1.831-0.322
		c0.479-0.217,0.856-0.518,1.133-0.902s0.509-0.85,0.697-1.393h0.197l-0.718,3.252h-12.36v-0.227h0.281
		c0.441,0,0.873-0.178,1.295-0.533c0.422-0.357,0.633-0.939,0.633-1.746v-15.627c0-0.639-0.143-1.191-0.429-1.66
		c-0.287-0.471-0.786-0.705-1.5-0.705H133.175z"/>
	<path fill="#010202" d="M157.741,231.143h-0.282v-0.295h7.18c1.154,0,2.133,0.178,2.936,0.533c0.802,0.357,1.426,0.811,1.872,1.359
		s0.765,1.129,0.958,1.738c0.192,0.611,0.289,1.211,0.289,1.803c0,0.75-0.157,1.471-0.472,2.16s-0.798,1.283-1.45,1.781
		s-1.466,0.836-2.442,1.014v0.057c1.239,0.6,2.384,1.793,3.435,3.576l1.872,3.166c0.845,1.418,1.523,2.314,2.035,2.689
		c0.511,0.375,1.016,0.586,1.513,0.633v0.227h-3.773c-0.16-0.207-0.31-0.406-0.45-0.6c-0.141-0.191-0.291-0.396-0.451-0.611
		c-0.094-0.141-0.232-0.354-0.416-0.641c-0.183-0.287-0.293-0.447-0.331-0.486l-2.478-4.096c-0.498-0.836-1.007-1.514-1.528-2.035
		c-0.521-0.52-1.006-0.893-1.457-1.119c-0.45-0.225-0.856-0.365-1.218-0.422s-0.786-0.084-1.274-0.084v7.588
		c0,1.473,0.751,2.232,2.252,2.279v0.227h-6.603v-0.227c0.413-0.018,0.779-0.096,1.098-0.232c0.319-0.135,0.584-0.369,0.795-0.703
		c0.211-0.332,0.317-0.781,0.317-1.344v-15.684c0-0.826-0.202-1.408-0.605-1.746C158.66,231.311,158.219,231.143,157.741,231.143z
		 M161.809,240.942h1.183c1.239,0,2.254-0.18,3.048-0.535c0.793-0.357,1.368-0.867,1.725-1.527c0.356-0.662,0.535-1.473,0.535-2.43
		c0-0.797-0.16-1.578-0.479-2.344c-0.319-0.764-0.861-1.408-1.626-1.928c-0.765-0.521-1.795-0.781-3.09-0.781
		c-0.526,0-0.958,0.041-1.295,0.127V240.942z"/>
	<path fill="#010202" d="M204.507,230.848v0.238c-0.525,0.066-0.962,0.244-1.309,0.535s-0.643,0.668-0.887,1.133
		c-0.244,0.465-0.521,1.082-0.831,1.852c-0.047,0.047-0.094,0.16-0.141,0.338l-5.997,17.189h-0.197l-7.067-18.598
		c0-0.037-0.019-0.094-0.056-0.168c-0.272-0.799-0.631-1.381-1.077-1.746s-1.002-0.545-1.668-0.535v-0.238h6.813v0.238
		c-0.573,0.057-1.033,0.17-1.379,0.338c-0.348,0.17-0.521,0.572-0.521,1.211c0,0.168,0.075,0.516,0.225,1.041
		c0.019,0.047,0.035,0.098,0.049,0.148c0.014,0.053,0.026,0.092,0.035,0.119l5.448,14.557h0.056l4.674-13.557
		c0.329-0.93,0.493-1.629,0.493-2.098c0-0.74-0.157-1.211-0.472-1.408s-0.781-0.314-1.4-0.352v-0.238H204.507z"/>
	<path fill="#010202" d="M222.09,230.848v0.238c-0.619,0-1.145,0.174-1.577,0.521s-0.647,0.924-0.647,1.73v15.74
		c0,0.797,0.23,1.377,0.69,1.738c0.459,0.361,0.971,0.541,1.534,0.541v0.227h-6.574v-0.227c0.601,0,1.119-0.176,1.556-0.527
		s0.655-0.936,0.655-1.752v-15.74c0-0.863-0.218-1.453-0.655-1.773c-0.437-0.318-0.955-0.479-1.556-0.479v-0.238H222.09z"/>
	<path fill="#010202" d="M252.513,235.493h-0.239c-0.178-1.014-0.654-1.871-1.429-2.576c-0.774-0.703-1.664-1.217-2.668-1.541
		s-1.942-0.486-2.815-0.486c-1.192,0-2.311,0.252-3.357,0.754c-1.047,0.502-1.95,1.211-2.71,2.125
		c-0.76,0.916-1.352,2.014-1.774,3.295s-0.633,2.672-0.633,4.174c0,1.455,0.204,2.805,0.612,4.047
		c0.408,1.244,1.004,2.324,1.788,3.238c0.784,0.916,1.692,1.607,2.724,2.076c1.032,0.471,2.177,0.705,3.435,0.705
		c1.051,0,2.206-0.215,3.463-0.641c1.257-0.428,2.393-1.139,3.407-2.133v0.801c-1.249,0.967-2.391,1.676-3.428,2.127
		s-2.33,0.676-3.878,0.676c-1.633,0-3.123-0.299-4.47-0.895s-2.484-1.4-3.414-2.414s-1.633-2.154-2.112-3.42
		c-0.479-1.268-0.718-2.572-0.718-3.914c0-2.018,0.497-3.893,1.492-5.625c0.995-1.73,2.341-3.102,4.04-4.111
		c1.699-1.008,3.543-1.512,5.533-1.512c1.229,0,2.539,0.182,3.928,0.549l1.464,0.408c0.281,0.057,0.521,0.084,0.718,0.084
		c0.366,0,0.61-0.055,0.732-0.162s0.216-0.303,0.282-0.584h0.225L252.513,235.493z"/>
	<path fill="#010202" d="M270.758,230.848v0.238c-0.619,0-1.145,0.174-1.577,0.521s-0.647,0.924-0.647,1.73v15.74
		c0,0.797,0.23,1.377,0.69,1.738c0.459,0.361,0.971,0.541,1.534,0.541v0.227h-6.574v-0.227c0.601,0,1.119-0.176,1.556-0.527
		s0.655-0.936,0.655-1.752v-15.74c0-0.863-0.218-1.453-0.655-1.773c-0.437-0.318-0.955-0.479-1.556-0.479v-0.238H270.758z"/>
	<path fill="#010202" d="M304.841,241.237c0,1.943-0.481,3.75-1.443,5.42s-2.273,3.002-3.935,3.99
		c-1.661,0.99-3.501,1.486-5.519,1.486c-2.027,0-3.885-0.496-5.575-1.486c-1.689-0.988-3.02-2.324-3.991-4.004
		c-0.971-1.68-1.457-3.51-1.457-5.49c0-1.521,0.289-2.949,0.866-4.287s1.384-2.504,2.421-3.498s2.22-1.766,3.548-2.309
		c1.328-0.545,2.714-0.816,4.16-0.816c1.417,0,2.778,0.26,4.083,0.781c1.304,0.52,2.475,1.273,3.512,2.26
		c1.037,0.984,1.851,2.152,2.442,3.504S304.841,239.624,304.841,241.237z M302.363,241.293c0-2.76-0.488-4.918-1.464-6.477
		c-0.976-1.557-2.103-2.602-3.379-3.133c-1.276-0.529-2.478-0.795-3.604-0.795c-0.873,0-1.778,0.145-2.717,0.43
		c-0.938,0.287-1.851,0.809-2.738,1.57c-0.887,0.76-1.617,1.83-2.189,3.209c-0.573,1.379-0.859,3.084-0.859,5.111
		c0,1.783,0.237,3.338,0.711,4.666s1.126,2.412,1.957,3.252s1.746,1.445,2.745,1.816s2.039,0.557,3.118,0.557
		c0.967,0,1.945-0.172,2.935-0.516c0.99-0.342,1.896-0.9,2.717-1.674c0.821-0.775,1.487-1.826,1.999-3.154
		C302.107,244.829,302.363,243.208,302.363,241.293z"/>
	<path fill="#010202" d="M327.689,234.831h-0.225c-0.132-1.004-0.57-1.883-1.316-2.639s-1.729-1.133-2.949-1.133
		c-0.798,0-1.506,0.188-2.126,0.563c-0.619,0.375-1.098,0.887-1.436,1.535c-0.338,0.646-0.507,1.389-0.507,2.225
		c0,0.646,0.101,1.221,0.303,1.723c0.202,0.504,0.5,0.947,0.894,1.332s0.859,0.744,1.394,1.076c0.535,0.334,1.258,0.754,2.168,1.26
		c1.521,0.836,2.703,1.668,3.548,2.5c0.845,0.83,1.267,1.967,1.267,3.412c0,0.883-0.228,1.734-0.683,2.557
		c-0.455,0.82-1.143,1.494-2.062,2.02c-0.92,0.525-2.061,0.789-3.421,0.789c-0.854,0-1.61-0.092-2.267-0.275
		c-0.657-0.184-1.323-0.439-1.999-0.768c-0.282-0.094-0.474-0.141-0.577-0.141c-0.197,0-0.326,0.07-0.387,0.211
		s-0.144,0.447-0.247,0.916h-0.239v-5.195h0.239c0.338,1.521,0.995,2.67,1.971,3.449c0.976,0.779,2.163,1.168,3.562,1.168
		c1.051,0,1.894-0.197,2.527-0.59c0.634-0.395,1.072-0.873,1.316-1.438c0.244-0.563,0.366-1.125,0.366-1.689
		c0-1.162-0.354-2.113-1.063-2.85c-0.709-0.736-1.786-1.49-3.231-2.26c-0.995-0.545-1.731-0.967-2.21-1.268
		c-0.479-0.301-0.964-0.689-1.457-1.168s-0.885-1.045-1.175-1.697c-0.291-0.65-0.437-1.4-0.437-2.244
		c0-0.977,0.258-1.91,0.774-2.803c0.516-0.891,1.248-1.605,2.196-2.146c0.948-0.539,2.022-0.809,3.224-0.809
		c0.91,0,1.844,0.154,2.801,0.465c0.15,0.074,0.352,0.111,0.605,0.111c0.31,0,0.521-0.211,0.634-0.633h0.225V234.831z"/>
	<path fill="#010202" d="M350.017,244.002c0-1.037,0.721-1.814,1.729-1.814s1.672,0.748,1.701,1.814c0,1.039-0.692,1.816-1.73,1.816
		C350.708,245.819,349.988,245.042,350.017,244.002z"/>
	<path fill="#010202" d="M385.678,234.887h-0.225c-0.104-1.352-0.498-2.227-1.183-2.625c-0.686-0.398-1.53-0.598-2.534-0.598h-4.125
		v17.414c0,1.473,0.751,2.232,2.253,2.279v0.227h-6.603v-0.227c0.619-0.018,1.143-0.199,1.569-0.541s0.641-0.922,0.641-1.738
		v-17.414h-4.125c-1.004,0-1.847,0.199-2.527,0.598c-0.68,0.398-1.076,1.273-1.189,2.625h-0.225v-5.068h0.225
		c0.15,0.236,0.282,0.408,0.395,0.521s0.258,0.209,0.437,0.289c0.178,0.08,0.387,0.137,0.626,0.168
		c0.239,0.033,0.523,0.051,0.853,0.051h13.43c0.892,0,1.586-0.344,2.084-1.029h0.225V234.887z"/>
	<path fill="#010202" d="M417.297,251.584h-4.35v-3.436l-0.07-0.057c-0.601,1.398-1.5,2.422-2.696,3.07
		c-1.196,0.646-2.447,0.971-3.752,0.971c-1.474,0-2.799-0.352-3.977-1.057c-1.178-0.703-2.044-1.572-2.598-2.604
		c-0.395-0.732-0.643-1.494-0.746-2.287s-0.154-1.617-0.154-2.471v-10.32c0-0.619-0.125-1.141-0.373-1.563
		c-0.249-0.422-0.843-0.67-1.781-0.746v-0.238h6.518v0.238c-0.957,0.113-1.567,0.391-1.83,0.83
		c-0.263,0.441-0.394,0.936-0.394,1.479v10.15c0,2.064,0.211,3.59,0.633,4.576c0.451,1.051,1.127,1.871,2.027,2.463
		c0.901,0.592,1.924,0.887,3.069,0.887c0.479,0,1.046-0.084,1.703-0.254c0.657-0.168,1.271-0.449,1.845-0.844
		c1.717-1.174,2.576-3.055,2.576-5.645v-11.334c0-0.572-0.132-1.078-0.395-1.52s-0.882-0.705-1.858-0.789v-0.238h6.631v0.238
		c-0.957,0.047-1.572,0.314-1.844,0.803c-0.272,0.488-0.408,0.98-0.408,1.479v15.711c0,0.543,0.091,0.973,0.274,1.287
		c0.183,0.314,0.437,0.537,0.76,0.67c0.324,0.131,0.721,0.238,1.189,0.322V251.584z"/>
	<path fill="#010202" d="M429.179,231.143h-0.281v-0.295h7.18c1.154,0,2.133,0.178,2.936,0.533c0.802,0.357,1.426,0.811,1.872,1.359
		c0.445,0.549,0.765,1.129,0.957,1.738c0.192,0.611,0.289,1.211,0.289,1.803c0,0.75-0.157,1.471-0.472,2.16s-0.798,1.283-1.45,1.781
		s-1.467,0.836-2.442,1.014v0.057c1.239,0.6,2.384,1.793,3.435,3.576l1.873,3.166c0.845,1.418,1.522,2.314,2.034,2.689
		c0.511,0.375,1.016,0.586,1.513,0.633v0.227h-3.772c-0.159-0.207-0.31-0.406-0.45-0.6c-0.141-0.191-0.291-0.396-0.451-0.611
		c-0.094-0.141-0.231-0.354-0.415-0.641c-0.183-0.287-0.293-0.447-0.331-0.486l-2.478-4.096c-0.497-0.836-1.006-1.514-1.527-2.035
		c-0.521-0.52-1.007-0.893-1.457-1.119c-0.45-0.225-0.856-0.365-1.218-0.422s-0.786-0.084-1.273-0.084v7.588
		c0,1.473,0.75,2.232,2.252,2.279v0.227h-6.603v-0.227c0.413-0.018,0.779-0.096,1.099-0.232c0.318-0.135,0.584-0.369,0.795-0.703
		c0.211-0.332,0.316-0.781,0.316-1.344v-15.684c0-0.826-0.201-1.408-0.605-1.746C430.099,231.311,429.658,231.143,429.179,231.143z
		 M433.248,240.942h1.182c1.239,0,2.255-0.18,3.048-0.535c0.793-0.357,1.368-0.867,1.725-1.527c0.357-0.662,0.535-1.473,0.535-2.43
		c0-0.797-0.159-1.578-0.479-2.344c-0.319-0.764-0.861-1.408-1.626-1.928c-0.765-0.521-1.795-0.781-3.09-0.781
		c-0.526,0-0.957,0.041-1.295,0.127V240.942z"/>
	<path fill="#010202" d="M464.078,230.848v0.238c-0.62,0-1.146,0.174-1.577,0.521s-0.647,0.924-0.647,1.73v15.74
		c0,0.797,0.229,1.377,0.689,1.738s0.972,0.541,1.535,0.541v0.227h-6.574v-0.227c0.601,0,1.119-0.176,1.556-0.527
		c0.436-0.352,0.654-0.936,0.654-1.752v-15.74c0-0.863-0.219-1.453-0.654-1.773c-0.437-0.318-0.955-0.479-1.556-0.479v-0.238
		H464.078z"/>
	<path fill="#010202" d="M486.447,234.831h-0.225c-0.132-1.004-0.57-1.883-1.316-2.639s-1.729-1.133-2.949-1.133
		c-0.798,0-1.507,0.188-2.126,0.563s-1.098,0.887-1.436,1.535c-0.338,0.646-0.507,1.389-0.507,2.225
		c0,0.646,0.101,1.221,0.303,1.723c0.201,0.504,0.499,0.947,0.894,1.332s0.858,0.744,1.394,1.076
		c0.535,0.334,1.258,0.754,2.168,1.26c1.521,0.836,2.703,1.668,3.548,2.5c0.845,0.83,1.267,1.967,1.267,3.412
		c0,0.883-0.228,1.734-0.683,2.557c-0.455,0.82-1.143,1.494-2.063,2.02s-2.06,0.789-3.421,0.789c-0.854,0-1.609-0.092-2.267-0.275
		c-0.656-0.184-1.323-0.439-1.999-0.768c-0.281-0.094-0.474-0.141-0.577-0.141c-0.197,0-0.326,0.07-0.387,0.211
		c-0.062,0.141-0.144,0.447-0.246,0.916h-0.239v-5.195h0.239c0.338,1.521,0.994,2.67,1.971,3.449
		c0.976,0.779,2.163,1.168,3.562,1.168c1.051,0,1.894-0.197,2.527-0.59c0.633-0.395,1.071-0.873,1.315-1.438
		c0.244-0.563,0.366-1.125,0.366-1.689c0-1.162-0.354-2.113-1.063-2.85c-0.709-0.736-1.786-1.49-3.231-2.26
		c-0.994-0.545-1.731-0.967-2.21-1.268s-0.964-0.689-1.457-1.168c-0.492-0.479-0.885-1.045-1.176-1.697
		c-0.291-0.65-0.436-1.4-0.436-2.244c0-0.977,0.258-1.91,0.773-2.803c0.517-0.891,1.248-1.605,2.196-2.146
		c0.948-0.539,2.022-0.809,3.224-0.809c0.911,0,1.845,0.154,2.802,0.465c0.15,0.074,0.353,0.111,0.605,0.111
		c0.31,0,0.521-0.211,0.634-0.633h0.225V234.831z"/>
	<path fill="#010202" d="M516.63,234.887h-0.225c-0.104-1.352-0.498-2.227-1.183-2.625c-0.686-0.398-1.53-0.598-2.534-0.598h-4.125
		v17.414c0,1.473,0.751,2.232,2.253,2.279v0.227h-6.603v-0.227c0.619-0.018,1.143-0.199,1.569-0.541s0.641-0.922,0.641-1.738
		v-17.414h-4.125c-1.004,0-1.847,0.199-2.527,0.598c-0.68,0.398-1.076,1.273-1.189,2.625h-0.225v-5.068h0.225
		c0.15,0.236,0.282,0.408,0.395,0.521s0.258,0.209,0.437,0.289c0.178,0.08,0.387,0.137,0.626,0.168
		c0.239,0.033,0.523,0.051,0.853,0.051h13.43c0.892,0,1.586-0.344,2.084-1.029h0.225V234.887z"/>
	<path fill="#010202" d="M534.383,230.848v0.238c-0.62,0-1.146,0.174-1.577,0.521s-0.647,0.924-0.647,1.73v15.74
		c0,0.797,0.229,1.377,0.689,1.738s0.972,0.541,1.535,0.541v0.227h-6.574v-0.227c0.601,0,1.119-0.176,1.556-0.527
		c0.436-0.352,0.654-0.936,0.654-1.752v-15.74c0-0.863-0.219-1.453-0.654-1.773c-0.437-0.318-0.955-0.479-1.556-0.479v-0.238
		H534.383z"/>
	<path fill="#010202" d="M564.805,235.493h-0.239c-0.179-1.014-0.654-1.871-1.429-2.576c-0.774-0.703-1.664-1.217-2.668-1.541
		s-1.942-0.486-2.815-0.486c-1.192,0-2.312,0.252-3.357,0.754c-1.047,0.502-1.95,1.211-2.71,2.125
		c-0.761,0.916-1.352,2.014-1.773,3.295c-0.423,1.281-0.634,2.672-0.634,4.174c0,1.455,0.204,2.805,0.612,4.047
		c0.408,1.244,1.004,2.324,1.788,3.238c0.783,0.916,1.691,1.607,2.724,2.076c1.032,0.471,2.178,0.705,3.436,0.705
		c1.051,0,2.205-0.215,3.463-0.641c1.258-0.428,2.393-1.139,3.406-2.133v0.801c-1.248,0.967-2.391,1.676-3.428,2.127
		s-2.33,0.676-3.878,0.676c-1.634,0-3.123-0.299-4.47-0.895c-1.348-0.596-2.485-1.4-3.414-2.414c-0.93-1.014-1.633-2.154-2.111-3.42
		c-0.479-1.268-0.719-2.572-0.719-3.914c0-2.018,0.498-3.893,1.492-5.625c0.995-1.73,2.342-3.102,4.041-4.111
		c1.698-1.008,3.542-1.512,5.532-1.512c1.229,0,2.539,0.182,3.928,0.549l1.464,0.408c0.282,0.057,0.521,0.084,0.718,0.084
		c0.366,0,0.61-0.055,0.732-0.162s0.216-0.303,0.281-0.584h0.226L564.805,235.493z"/>
	<path fill="#010202" d="M598.816,241.237c0,1.943-0.48,3.75-1.442,5.42c-0.963,1.67-2.273,3.002-3.935,3.99
		c-1.662,0.99-3.501,1.486-5.519,1.486c-2.027,0-3.886-0.496-5.575-1.486c-1.689-0.988-3.02-2.324-3.991-4.004
		s-1.457-3.51-1.457-5.49c0-1.521,0.289-2.949,0.866-4.287s1.384-2.504,2.421-3.498s2.22-1.766,3.548-2.309
		c1.328-0.545,2.715-0.816,4.16-0.816c1.417,0,2.777,0.26,4.082,0.781c1.305,0.52,2.476,1.273,3.513,2.26
		c1.037,0.984,1.852,2.152,2.442,3.504C598.521,238.139,598.816,239.624,598.816,241.237z M596.339,241.293
		c0-2.76-0.488-4.918-1.464-6.477c-0.977-1.557-2.103-2.602-3.379-3.133c-1.276-0.529-2.478-0.795-3.604-0.795
		c-0.873,0-1.779,0.145-2.718,0.43c-0.938,0.287-1.851,0.809-2.737,1.57c-0.888,0.76-1.617,1.83-2.189,3.209
		s-0.858,3.084-0.858,5.111c0,1.783,0.236,3.338,0.711,4.666c0.474,1.328,1.126,2.412,1.956,3.252
		c0.831,0.84,1.746,1.445,2.745,1.816c1,0.371,2.039,0.557,3.119,0.557c0.966,0,1.944-0.172,2.935-0.516
		c0.99-0.342,1.896-0.9,2.717-1.674c0.821-0.775,1.488-1.826,1.999-3.154C596.083,244.829,596.339,243.208,596.339,241.293z"/>
	<path fill="#010202" d="M621.665,234.831h-0.225c-0.132-1.004-0.57-1.883-1.316-2.639s-1.729-1.133-2.949-1.133
		c-0.798,0-1.507,0.188-2.126,0.563s-1.098,0.887-1.436,1.535c-0.338,0.646-0.507,1.389-0.507,2.225
		c0,0.646,0.101,1.221,0.303,1.723c0.201,0.504,0.499,0.947,0.894,1.332s0.858,0.744,1.394,1.076
		c0.535,0.334,1.258,0.754,2.168,1.26c1.521,0.836,2.703,1.668,3.548,2.5c0.845,0.83,1.267,1.967,1.267,3.412
		c0,0.883-0.228,1.734-0.683,2.557c-0.455,0.82-1.143,1.494-2.063,2.02s-2.06,0.789-3.421,0.789c-0.854,0-1.609-0.092-2.267-0.275
		c-0.656-0.184-1.323-0.439-1.999-0.768c-0.281-0.094-0.474-0.141-0.577-0.141c-0.197,0-0.326,0.07-0.387,0.211
		c-0.062,0.141-0.144,0.447-0.246,0.916h-0.239v-5.195h0.239c0.338,1.521,0.994,2.67,1.971,3.449
		c0.976,0.779,2.163,1.168,3.562,1.168c1.051,0,1.894-0.197,2.527-0.59c0.633-0.395,1.071-0.873,1.315-1.438
		c0.244-0.563,0.366-1.125,0.366-1.689c0-1.162-0.354-2.113-1.063-2.85c-0.709-0.736-1.786-1.49-3.231-2.26
		c-0.994-0.545-1.731-0.967-2.21-1.268s-0.964-0.689-1.457-1.168c-0.492-0.479-0.885-1.045-1.176-1.697
		c-0.291-0.65-0.436-1.4-0.436-2.244c0-0.977,0.258-1.91,0.773-2.803c0.517-0.891,1.248-1.605,2.196-2.146
		c0.948-0.539,2.022-0.809,3.224-0.809c0.911,0,1.845,0.154,2.802,0.465c0.15,0.074,0.353,0.111,0.605,0.111
		c0.31,0,0.521-0.211,0.634-0.633h0.225V234.831z"/>
</g>
<g>
	<path d="M93.564,71.156h99.587c0.189,0.063,0.283,0.188,0.283,0.377v39.458c0,0.188-0.094,0.283-0.283,0.283h-59.563v55.788h19.54
		v-40.212c0.062-0.189,0.189-0.283,0.377-0.283h39.646c0.189,0,0.283,0.094,0.283,0.283v80.235c0,0.189-0.094,0.283-0.283,0.283
		H93.564c-0.189,0-0.283-0.094-0.283-0.283V71.533C93.281,71.283,93.375,71.156,93.564,71.156z M99.889,77.763v5.286
		c5.978,6.168,9.093,9.251,9.345,9.251c2.832-0.755,4.248-1.195,4.248-1.322L101.304,78.99v-0.188l0.944-1.039H99.889z
		 M99.889,98.247v102.419h5.286c0.25-0.252,6.985-15.354,20.2-45.31c1.069-2.077,1.605-3.398,1.605-3.965v-46.348
		c0-0.188,0.094-0.283,0.283-0.283h59.563v-7.363l-27.375-15.103L99.889,98.247z M99.889,85.692v5.853
		c1.447,1.637,2.327,2.455,2.643,2.455l4.531-1.133C107.063,92.741,104.67,90.351,99.889,85.692z M99.889,94.283v0.472h0.094
		c0.189,0,0.283-0.094,0.283-0.283l-0.283-0.188H99.889z M102.626,77.763c8.369,8.496,12.68,12.744,12.932,12.744l4.342-1.039
		c-4.028-4.153-7.929-8.055-11.705-11.705H102.626z M113.954,189.338c-2.643,5.98-3.965,9.156-3.965,9.535v1.793h4.059v-11.328
		H113.954z M110.838,77.763l10.95,11.139c3.021-0.755,4.593-1.227,4.72-1.416l-9.817-9.723H110.838z M116.974,182.637
		c-0.566,1.195-0.944,2.17-1.133,2.926v15.104h3.964v-12.648C119.806,187.514,118.862,185.721,116.974,182.637z M159.735,156.017
		v17.368c0,0.189-0.095,0.283-0.283,0.283h-32.189c-0.189,0-0.283-0.094-0.283-0.283v-13.026h-0.189
		c-5.286,12.02-7.929,18.124-7.929,18.313l11.422,21.994h45.593c2.202-1.951,5.853-5.537,10.95-10.762v-56.731h-5.286
		C170.591,144.501,163.322,152.116,159.735,156.017z M119.334,77.763c5.978,6.168,9.093,9.251,9.345,9.251l4.248-1.039v-0.094
		c-1.196-1.383-3.87-4.09-8.023-8.118H119.334z M121.505,191.131v9.535h4.248v-1.229c0-0.188-1.354-2.957-4.059-8.307H121.505z
		 M127.357,77.763l7.552,7.646c3.587-0.88,5.38-1.416,5.38-1.604l-6.136-6.042H127.357z M136.797,77.763
		c0,0.127,1.855,1.982,5.569,5.569c0.125,0,1.667-0.377,4.625-1.133c0-0.125-1.448-1.604-4.342-4.437H136.797z M145.292,77.763
		c0.062,0.252,1.322,1.543,3.776,3.871c0.062,0,1.542-0.409,4.437-1.228c0-0.125-0.882-1.006-2.643-2.643H145.292z M153.316,77.763
		c1.194,1.385,1.919,2.077,2.171,2.077l4.248-1.038v-0.094c0-0.189-0.283-0.503-0.85-0.944H153.316z M159.735,133.173v17.652
		c2.391-2.265,8.054-8.149,16.991-17.652H159.735z M161.529,77.763l0.283,0.472c0.439-0.189,0.88-0.283,1.321-0.283v-0.189H161.529z
		 M164.266,80.973v0.189l22.561,12.46V77.763h-9.817C176.127,77.89,171.88,78.959,164.266,80.973z M180.974,200.667h5.853v-5.758
		C186.008,195.538,184.057,197.458,180.974,200.667z"/>
	<path d="M203.157,71.25h39.74c0.189,0,0.283,0.094,0.283,0.283v95.623h19.54V71.533c0-0.189,0.094-0.283,0.283-0.283h39.74
		c0.189,0,0.283,0.094,0.283,0.283v135.551c0,0.189-0.094,0.283-0.283,0.283h-99.587c-0.189,0-0.283-0.094-0.283-0.283V71.533
		C202.874,71.344,202.968,71.25,203.157,71.25z M209.576,77.952v4.72c2.957,3.084,7.802,7.867,14.537,14.348h0.095
		c0-0.189,0.597-1.416,1.793-3.682L210.52,77.952H209.576z M209.576,85.126v6.042c3.587,3.714,7.457,7.552,11.61,11.516
		c1.322-2.202,1.982-3.555,1.982-4.059L209.576,85.126z M209.576,93.622v31.906h0.189l10.667-21.239L209.576,93.622z
		 M217.788,116.843c-5.475,10.888-8.212,16.458-8.212,16.708v67.116h40.118c20.892-18.752,31.464-28.318,31.717-28.697
		c-1.007-0.754-4.972-4.309-11.894-10.666h-0.094v12.178c0,0.188-0.094,0.283-0.283,0.283h-32.377c-0.189,0-0.283-0.096-0.283-0.283
		v-23.694c-0.127-0.566-3.776-7.047-10.95-19.445c-5.035-8.874-7.551-13.372-7.551-13.499H217.788z M213.068,77.952
		c4.279,4.406,8.873,9,13.782,13.782c1.195-2.266,1.793-3.523,1.793-3.776c-3.714-3.838-7.049-7.174-10.006-10.006H213.068z
		 M236.384,80.123c-3.147,6.419-8.717,17.463-16.708,33.133l16.708,29.357h0.095v-62.49H236.384z M221.186,77.952
		c2.202,2.392,4.971,5.192,8.307,8.401h0.094l1.982-4.154l-4.437-4.248H221.186z M229.776,77.952c0,0.127,0.88,1.007,2.643,2.643
		h0.094l1.227-2.643H229.776z M254.791,200.667h41.534v-14.914c0-0.127-4.092-3.902-12.271-11.328h-0.189
		C264.608,191.668,254.917,200.415,254.791,200.667z M269.422,77.952v16.425c12.271-10.634,18.501-16.109,18.69-16.425H269.422z
		 M269.422,98.719v57.958h0.094V98.719H269.422z M271.31,97.303v60.979c2.013,2.015,3.618,3.461,4.814,4.342v-69.57
		C273.104,95.573,271.499,96.989,271.31,97.303z M280.372,89.185l-2.454,2.36v72.685c0,0.127,1.353,1.385,4.059,3.776h0.188v-77.31
		C281.977,90.381,281.378,89.878,280.372,89.185z M283.015,86.92c0,0.063,4.437,3.619,13.31,10.667V77.952h-2.832L283.015,86.92z
		 M283.865,92.017v77.593c0.503,0.631,1.825,1.857,3.965,3.682V95.227C287.83,95.101,286.508,94.032,283.865,92.017z
		 M289.623,96.548v78.349c2.454,2.328,3.743,3.492,3.87,3.492V99.757C293.493,99.695,292.203,98.625,289.623,96.548z
		 M295.287,101.173v78.819c0,0.189,0.345,0.537,1.039,1.039v-79.198c-0.189,0-0.505-0.22-0.944-0.661H295.287z"/>
	<path d="M312.75,71.439h99.587c0.188,0,0.283,0.094,0.283,0.283v39.552c0,0.188-0.095,0.283-0.283,0.283h-59.564v6.514h59.564
		c0.188,0,0.283,0.094,0.283,0.283v39.551c0,0.252-0.095,0.378-0.283,0.378h-59.564v8.873h59.564
		c0.188,0.063,0.283,0.158,0.283,0.283v39.646c0,0.189-0.095,0.283-0.283,0.283H312.75c-0.189,0-0.283-0.094-0.283-0.283V71.722
		C312.466,71.533,312.561,71.439,312.75,71.439z M319.168,77.952v42.855c7.299-1.572,11.358-2.549,12.177-2.926l10.478-39.929
		H319.168z M319.168,124.3v63.622c0.125,0.189,2.957,2.486,8.496,6.891l78.348-16.424v-4.531h-59.657
		c-0.189,0-0.283-0.094-0.283-0.283v-21.617c0.062-0.188,0.156-0.283,0.283-0.283h15.858c0.314,0,8.495-4.939,24.543-14.82
		c4.53-2.643,7.11-4.248,7.74-4.814c-1.008-1.006-3.65-3.429-7.93-7.268h-40.212c-0.189,0-0.283-0.095-0.283-0.283v-6.419
		C345.063,118.322,336.096,120.399,319.168,124.3z M319.168,192.454v8.307h4.814v-4.342c-0.126-0.314-1.668-1.637-4.625-3.965
		H319.168z M325.587,197.741v3.02h3.964c-2.454-2.014-3.714-3.02-3.776-3.02H325.587z M331.628,197.458v0.377
		c1.95,1.951,3.209,2.926,3.776,2.926h0.283v-4.248L331.628,197.458z M335.027,117.126h0.094c3.712-0.691,5.569-1.416,5.569-2.171
		c0.125,0,1.919-1.793,5.381-5.38v-4.248c0.062-0.188,0.156-0.283,0.283-0.283h4.248l27.091-26.902v-0.189h-6.607
		c-23.41,23.221-35.115,34.99-35.115,35.304C335.719,114.641,335.404,115.932,335.027,117.126z M337.198,109.292
		c8.621-8.496,19.036-18.941,31.245-31.339h-5.097c-0.566,0-2.424,1.699-5.569,5.097c-12.46,12.335-18.69,18.628-18.69,18.879
		C337.826,106.397,337.198,108.852,337.198,109.292z M337.481,196.418v4.342h3.965v-5.381
		C338.803,195.885,337.481,196.229,337.481,196.418z M340.124,98.153c6.23-6.042,12.932-12.711,20.106-20.012v-0.189h-5.381
		c-0.566,0-2.077,1.385-4.531,4.153c-5.538,5.286-8.307,8.15-8.307,8.59C340.752,95.479,340.124,97.964,340.124,98.153z
		 M343.05,115.238h0.095l2.926-0.566v-2.454C345.944,112.218,344.938,113.225,343.05,115.238z M343.145,86.637
		c2.58-2.455,5.475-5.348,8.684-8.685h-5.475c-0.944,0.504-1.605,1.731-1.982,3.682L343.145,86.637z M343.145,194.909v5.852h4.248
		v-6.514h-0.094L343.145,194.909z M349.186,193.776v6.984h4.059v-7.834C353.182,192.926,351.829,193.209,349.186,193.776z
		 M353.434,104.855v0.188h5.664c1.511-1.258,10.54-10.226,27.092-26.902v-0.189h-5.476c-0.504,0-1.92,1.26-4.247,3.776
		C368.159,89.973,360.481,97.681,353.434,104.855z M356.454,192.454v8.307h4.438v-9.439
		C357.933,191.825,356.454,192.204,356.454,192.454z M361.93,104.855v0.188h5.38c8.874-8.746,17.872-17.777,26.997-27.091h-5.38
		C382.759,83.932,373.76,92.899,361.93,104.855z M362.59,191.131v9.629h3.965v-10.666
		C363.912,190.598,362.59,190.944,362.59,191.131z M368.349,189.715v11.045h3.965v-11.799L368.349,189.715z M369.009,151.486v0.188
		h37.003v-8.496c0-0.503-1.259-1.824-3.775-3.964c-2.832-2.705-4.531-4.248-5.098-4.625
		C380.398,144.784,371.022,150.417,369.009,151.486z M369.953,105.043h5.381c0.25,0,8.212-7.896,23.882-23.693
		c0-0.125-0.944-1.069-2.832-2.832C388.266,86.511,379.455,95.354,369.953,105.043z M374.012,188.489v12.271h4.248v-13.121
		C375.742,188.206,374.326,188.489,374.012,188.489z M378.071,104.855v0.188h5.475c0.566,0,2.171-1.478,4.814-4.437
		c5.978-5.853,10.98-10.855,15.009-15.009l-2.927-2.926C399.688,83.238,392.23,90.634,378.071,104.855z M380.054,187.452v13.309
		h4.059v-14.254C381.406,186.948,380.054,187.262,380.054,187.452z M385.717,186.319v14.441h5.003v-15.574h-0.188
		C387.322,185.69,385.717,186.067,385.717,186.319z M404.597,86.92c0,0.126-6.011,6.104-18.03,17.935v0.188h5.476
		c4.215-4.153,8.873-8.84,13.97-14.065v-2.643C406.012,88.21,405.54,87.738,404.597,86.92z M391.759,124.772
		c1.572,1.637,6.292,6.01,14.159,13.121h0.094v-13.121H391.759z M392.325,184.713v16.047h4.342v-16.896L392.325,184.713z
		 M394.59,105.043h11.139c0.189,0,0.283-0.094,0.283-0.283v-10.95h-0.094C401.765,97.775,397.988,101.52,394.59,105.043z
		 M398.271,183.674v17.086h4.153v-18.123C399.655,183.077,398.271,183.424,398.271,183.674z M400.82,77.952v0.189
		c0,0.126,1.699,1.826,5.098,5.097h0.094v-5.003c0-0.189-0.094-0.283-0.283-0.283H400.82z M404.124,182.258v18.502h1.888v-18.879
		h-0.094C405.729,181.881,405.13,182.008,404.124,182.258z"/>
	<path d="M422.343,71.816h99.115c0.188,0.063,0.283,0.158,0.283,0.283v39.363c0,0.189-0.095,0.283-0.283,0.283h-59.28v55.504h12.365
		c0.378,0,0.566-0.031,0.566-0.094l1.039,0.094h45.31c0.188,0.063,0.283,0.158,0.283,0.283v39.551c0,0.189-0.095,0.283-0.283,0.283
		h-99.115c-0.188,0-0.283-0.094-0.283-0.283V72.1C422.06,71.911,422.154,71.816,422.343,71.816z M428.573,78.424v3.87
		c0,0.188,0.313,0.347,0.943,0.472v-4.342H428.573z M428.573,86.07V136.1c17.808-8.432,26.808-12.649,26.997-12.649v-17.935
		c0.062-0.189,0.156-0.283,0.283-0.283h39.646v-0.189C451.134,92.395,428.823,86.07,428.573,86.07z M428.573,140.064v60.602h0.943
		v-61.168C428.887,139.687,428.573,139.875,428.573,140.064z M431.216,78.424v4.908c0.378,0,1.794,0.378,4.248,1.133v-6.041H431.216
		z M431.216,138.743v61.924h4.248v-64h-0.095C432.6,137.926,431.216,138.617,431.216,138.743z M437.257,78.424v6.418
		c0,0.189,1.353,0.599,4.06,1.228v-7.646H437.257z M437.257,135.628v65.039h4.06v-66.738h-0.188
		C438.735,135.062,437.446,135.628,437.257,135.628z M442.921,78.424v8.023c0,0.189,1.604,0.661,4.814,1.416v-3.209
		c0-0.503-1.416-2.58-4.248-6.23H442.921z M442.921,133.173v67.493h4.814v-69.853h-0.189
		C444.462,132.262,442.921,133.048,442.921,133.173z M447.735,78.424c5.223,7.551,8.085,11.58,8.59,12.083
		c34.549,9.817,51.979,14.726,52.295,14.726h6.607V78.424H447.735z M449.435,86.825v1.605c0.628,0.188,1.069,0.283,1.321,0.283
		c-0.755-1.133-1.133-1.761-1.133-1.888H449.435z M449.435,130.153v70.514c2.957-3.398,4.437-5.381,4.437-5.947v-66.738h-0.189
		C450.851,129.241,449.435,129.964,449.435,130.153z M468.408,181.598l-14.443,18.879v0.189h61.263v-4.248
		c-0.127-0.189-3.934-1.447-11.422-3.775C480.458,185.28,468.658,181.598,468.408,181.598z M455.476,127.038v65.793h0.283
		c0-0.188,1.258-1.887,3.775-5.096v-13.877h-3.681c-0.189,0-0.283-0.094-0.283-0.283v-46.537H455.476z M461.233,173.858v11.328
		c2.644-3.084,3.965-4.877,3.965-5.381v-5.947H461.233z M466.992,173.858v3.965c0.125-0.063,1.133-1.385,3.021-3.965H466.992z
		 M470.768,178.483c0.314,0.316,4.342,1.637,12.083,3.965c20.325,6.482,31.117,9.881,32.377,10.195v-18.785h-40.873
		C474.228,173.858,473.033,175.401,470.768,178.483z"/>
	<path d="M531.464,71.156h99.587c0.189,0.063,0.283,0.188,0.283,0.377v135.551c0,0.189-0.094,0.283-0.283,0.283h-39.646
		c-0.253,0-0.378-0.094-0.378-0.283v-48.896h-19.54v48.896c0,0.189-0.127,0.283-0.377,0.283h-39.646
		c-0.188,0-0.283-0.094-0.283-0.283V71.533C531.181,71.283,531.275,71.156,531.464,71.156z M537.788,77.763v18.313
		c26.179-12.083,39.395-18.124,39.646-18.124v-0.189H537.788z M537.788,99.757v80.048c0.439,0.504,8.968,7.457,25.581,20.861h1.322
		V151.77c0.062-0.251,0.156-0.378,0.283-0.378h32.377c0.189,0.063,0.283,0.189,0.283,0.378v48.897h27.092v-77.499
		c-0.127-0.25-12.083-8.779-35.87-25.581c-11.391-7.991-17.433-12.302-18.124-12.932L537.788,99.757z M539.11,185.374v15.293h4.059
		v-11.895C542.225,187.829,540.871,186.696,539.11,185.374z M544.963,190.094v10.572h3.964v-7.457
		C548.611,193.02,547.29,191.981,544.963,190.094z M550.626,194.813v5.854h4.248v-2.359
		C553.866,197.237,552.45,196.073,550.626,194.813z M556.667,199.627v1.039h1.133C557.8,200.477,557.423,200.131,556.667,199.627z
		 M564.975,104.76h32.377c0.189,0,0.283,0.095,0.283,0.283v19.163c0,0.188-0.094,0.283-0.283,0.283h-32.377
		c-0.189,0-0.283-0.095-0.283-0.283v-19.163C564.753,104.855,564.848,104.76,564.975,104.76z M571.487,111.274v6.607h19.54v-6.607
		H571.487z M574.225,83.238c2.202,1.448,3.366,2.171,3.493,2.171l7.079-7.174h-0.188C578.44,81.067,574.98,82.735,574.225,83.238z
		 M579.039,86.542l3.21,2.266c3.082-3.021,6.764-6.702,11.044-11.044h-5.475C587.691,77.827,584.765,80.753,579.039,86.542z
		 M583.759,89.94c2.202,1.448,3.366,2.171,3.493,2.171l14.253-14.348h-5.569C591.089,82.483,587.03,86.542,583.759,89.94z
		 M588.573,93.15c0,0.063,1.133,0.882,3.398,2.454h0.094c6.104-5.915,12.083-11.861,17.936-17.841h-5.947
		C601.6,80.029,596.438,85.159,588.573,93.15z M593.576,96.831l3.209,2.171c8.307-8.118,15.387-15.198,21.239-21.239h-5.475
		C605.941,84.309,599.617,90.665,593.576,96.831z M598.201,100.229c0.314,0.063,1.699,0.977,4.153,2.737
		c14.915-14.976,22.372-22.528,22.372-22.655v-2.549h-4.059C614.186,84.12,606.697,91.608,598.201,100.229z M603.677,104.005
		l3.681,2.454c11.578-11.642,17.369-17.525,17.369-17.652v-5.758h-0.095C618.779,88.713,611.794,95.698,603.677,104.005z
		 M608.68,107.498c0.062,0,1.163,0.788,3.304,2.36l12.743-12.932v-5.381C614.216,101.803,608.868,107.12,608.68,107.498z
		 M613.493,110.896l3.304,2.36c5.286-5.348,7.93-8.085,7.93-8.212v-5.475C620.635,103.597,616.892,107.373,613.493,110.896z
		 M618.119,114.2l3.681,2.548c1.95-1.888,2.927-3.052,2.927-3.493v-5.475h-0.095C624.505,107.781,622.334,109.921,618.119,114.2z
		 M623.122,117.787c1.006,0.693,1.541,1.038,1.604,1.038v-2.548h-0.095C624.505,116.277,624.002,116.781,623.122,117.787z"/>
</g>
<g>
</g>
<g>
</g>
<g>
</g>
<g>
</g>
<g>
</g>
<g>
</g>
</svg>
